<svg xmlns="http://www.w3.org/2000/svg" width="612" height="612" viewBox="0 0 612 612"><path d="M612 306C612 137.004 474.995 0 306 0 137.004 0 0 137.004 0 306c0 168.995 137.004 306 306 306 168.995 0 306-137.005 306-306zm-584.182 0C27.818 152.36 152.36 27.818 306 27.818S584.182 152.36 584.182 306 459.64 584.182 306 584.182 27.818 459.64 27.818 306z"/><path d="M317.74 482.617V306h58.278l9.208-58.53H317.74v-29.347c0-15.272 5.006-29.85 26.927-29.85h43.813v-58.417h-62.2c-52.3 0-66.57 34.438-66.57 82.175v35.414h-35.885V306h35.885v176.617h58.03z"/></svg>