<svg xmlns="http://www.w3.org/2000/svg" width="612" height="612" viewBox="0 0 612 612"><path d="M349.146 402.25c0-30.015-17.387-44.814-36.525-60.92l-15.66-12.186c-4.786-3.895-11.295-9.124-11.295-18.693 0-9.57 6.537-15.66 12.184-21.308 18.248-14.354 36.525-29.57 36.525-61.756 0-33.076-20.892-50.462-30.878-58.724h26.956L358.27 153H268.67c-23.48 0-53.05 3.478-77.863 23.924-18.693 16.08-27.818 38.278-27.818 58.28 0 33.91 26.093 68.293 72.188 68.293 4.368 0 9.125-.445 13.937-.863-2.17 5.23-4.34 9.57-4.34 16.97 0 13.464 6.955 21.753 13.047 29.57-19.557 1.308-56.11 3.478-83.066 20-25.676 15.218-33.493 37.417-33.493 53.078 0 32.186 30.462 62.2 93.526 62.2 74.775.002 114.36-41.336 114.36-82.2zM255.62 291.34c-37.414 0-54.383-48.292-54.383-77.418 0-11.322 2.17-23.034 9.57-32.186 6.954-8.707 19.138-14.382 30.46-14.382 36.108 0 54.802 48.738 54.802 80.033 0 7.845-.863 21.754-10.878 31.768-6.955 6.955-18.694 12.157-29.57 12.185zm.446 174.837c-46.54 0-76.556-22.17-76.556-53.05s27.846-41.31 37.416-44.786c18.276-6.092 41.755-6.98 45.677-6.98 4.34 0 6.51 0 9.987.444 33.076 23.48 47.402 35.218 47.402 57.416 0 26.956-22.17 46.957-63.926 46.957z"/><path d="M353.068 317.768h47.096v47.068H423.7v-47.068h47.068v-23.535h-47.07v-47.068h-23.534v47.068h-47.096z"/><path d="M612 306C612 137.004 474.995 0 306 0 137.004 0 0 137.004 0 306c0 168.995 137.004 306 306 306 168.995 0 306-137.005 306-306zm-584.182 0C27.818 152.36 152.36 27.818 306 27.818S584.182 152.36 584.182 306 459.64 584.182 306 584.182 27.818 459.64 27.818 306z"/></svg>