<svg xmlns="http://www.w3.org/2000/svg" width="612" height="612" viewBox="0 0 612 612"><path d="M447.232 252.033c0-63.453-52.66-122.567-132.664-122.567-99.59 0-149.773 72.884-149.773 133.667 0 36.803 13.63 69.545 42.923 81.73 4.785 2.003 9.097.056 10.488-5.342.946-3.754 3.254-13.24 4.256-17.162 1.42-5.37.862-7.233-3.004-11.935-8.457-10.21-13.826-23.34-13.826-41.978 0-54.05 39.613-102.454 103.178-102.454 56.276 0 87.21 35.107 87.21 81.98 0 61.702-26.733 113.75-66.457 113.75-21.95 0-38.334-18.5-33.076-41.198 6.287-27.095 18.5-56.36 18.5-75.916 0-17.498-9.21-32.13-28.264-32.13-22.42 0-40.42 23.673-40.42 55.386 0 20.196 6.704 33.854 6.704 33.854s-22.95 99.228-26.956 116.586c-3.644 15.83-4.2 33.215-3.7 47.903 1.53 13.186 14.3 23.924 25.37 9.458 7.79-12.713 16.164-28.764 20.503-44.843 2.587-9.514 14.744-58.808 14.744-58.808 7.288 14.188 28.57 26.678 51.213 26.678 67.347-.028 113.052-62.73 113.052-146.657z"/><path d="M612 306C612 137.004 474.995 0 306 0 137.004 0 0 137.004 0 306c0 168.995 137.004 306 306 306 168.995 0 306-137.005 306-306zm-584.182 0C27.818 152.36 152.36 27.818 306 27.818S584.182 152.36 584.182 306 459.64 584.182 306 584.182 27.818 459.64 27.818 306z"/></svg>