<svg xmlns="http://www.w3.org/2000/svg" viewBox="0 0 310.05 310.05"><path d="M245.265 31.772C223.923 11.284 194.388 0 162.1 0c-49.32 0-79.653 20.217-96.415 37.176-20.658 20.9-32.504 48.65-32.504 76.14 0 34.512 14.437 61.002 38.612 70.857 1.623.665 3.256 1 4.857 1 5.1 0 9.14-3.337 10.54-8.69.816-3.07 2.707-10.647 3.53-13.936 1.76-6.495.337-9.62-3.5-14.142-6.993-8.273-10.25-18.056-10.25-30.788 0-37.818 28.16-78.01 80.353-78.01 41.412 0 67.137 23.536 67.137 61.424 0 23.91-5.15 46.052-14.504 62.35-6.5 11.326-17.93 24.826-35.477 24.826-7.59 0-14.405-3.117-18.706-8.55-4.063-5.138-5.402-11.774-3.768-18.69 1.846-7.814 4.363-15.965 6.8-23.845 4.442-14.39 8.642-27.984 8.642-38.83 0-18.55-11.404-31.013-28.375-31.013-21.568 0-38.465 21.906-38.465 49.87 0 13.716 3.645 23.974 5.295 27.913-2.717 11.512-18.865 79.953-21.928 92.86-1.77 7.533-12.44 67.038 5.22 71.783 19.84 5.33 37.575-52.623 39.38-59.172 1.463-5.325 6.582-25.464 9.72-37.844 9.577 9.226 25 15.463 40.005 15.463 28.29 0 53.73-12.73 71.637-35.844 17.367-22.418 26.932-53.664 26.932-87.978 0-26.826-11.52-53.272-31.605-72.556z"/></svg>