<svg xmlns="http://www.w3.org/2000/svg" viewBox="0 0 224.726 224.726"><path d="M223.612 109.586L190.5 35.752l-.003-.006-.043-.096a4.954 4.954 0 0 0-.39-.7c-.038-.06-.085-.114-.126-.17a5.01 5.01 0 0 0-1.14-1.14c-.05-.036-.095-.076-.146-.11a5.067 5.067 0 0 0-.746-.405c-.074-.033-.15-.057-.227-.086a4.97 4.97 0 0 0-.626-.195c-.088-.02-.175-.042-.264-.058a4.93 4.93 0 0 0-.896-.09h-58.428a15.87 15.87 0 0 0-5.485-7.737v-7.262a5 5 0 0 0-5-5h-9.333a5 5 0 0 0-5 5v7.38a15.866 15.866 0 0 0-5.326 7.62H38.735a5.03 5.03 0 0 0-.896.09c-.09.016-.176.037-.264.058a4.92 4.92 0 0 0-.625.194c-.077.03-.154.053-.228.086-.26.115-.51.248-.746.405-.05.035-.096.075-.145.11-.187.135-.364.28-.532.44-.064.06-.124.123-.185.186a4.99 4.99 0 0 0-.424.514c-.043.058-.09.112-.128.17-.146.222-.278.454-.39.7l-.042.097-.003.006-33.23 74.095A4.974 4.974 0 0 0 0 112.696c0 21.358 17.376 38.734 38.734 38.734s38.734-17.376 38.734-38.734c0-1.06-.334-2.038-.897-2.847L46.457 42.695h50.986a15.878 15.878 0 0 0 5.204 7.286v125.38H58.308a5 5 0 0 0-4.444 2.71L40.11 204.737a5 5 0 0 0 4.444 7.292H180.094a5 5 0 0 0 4.23-7.665L170.76 178.07a5 5 0 0 0-4.443-2.707H121.98V50.1a15.878 15.878 0 0 0 5.363-7.404h50.828l-30.474 67.954c-.008.018-.012.036-.02.054-.023.054-.04.11-.062.165-.09.228-.162.462-.217.698-.014.062-.032.122-.044.184a4.956 4.956 0 0 0-.087.866c0 .027-.008.05-.008.078 0 21.358 17.376 38.734 38.734 38.734s38.734-17.376 38.734-38.734a4.954 4.954 0 0 0-1.114-3.11zm-158.966-1.89H12.822l25.912-57.78 25.912 57.78zm53.58-70.166a5.84 5.84 0 0 1-5.833 5.833 5.84 5.84 0 0 1-5.834-5.833 5.84 5.84 0 0 1 5.833-5.833 5.84 5.84 0 0 1 5.833 5.833zm41.754 70.166l25.913-57.78 25.912 57.78H159.98z"/></svg>