<svg xmlns="http://www.w3.org/2000/svg" width="513" height="513" viewBox="0 0 513 513"><path d="M256.5 0C114.833 0 0 114.833 0 256.5S114.833 513 256.5 513 513 398.167 513 256.5 398.167 0 256.5 0zm0 472.922c-119.53 0-216.422-96.893-216.422-216.422 0-119.53 96.892-216.422 216.422-216.422S472.922 136.97 472.922 256.5 376.03 472.922 256.5 472.922z"/><path d="M344.28 144.28c-32.61 0-58.113 21.105-69.15 60.823 12.022-5.7 33.848-8.673 35.554 11.178 1.724 19.868-28.445 71.25-41.69 71.25-13.212 0-23.044-58.098-26.488-84.65-3.413-26.582-9.55-55.858-34.552-55.858-25.033 0-57.127 39.233-79.702 57.11l11.773 16.11s16.658-13.135 22.56-12.148c15.2 3.96 28.195 65.785 34.833 89.362 6.606 23.593 14.685 71.265 47.31 71.265 52.73 0 140.024-130.832 140.024-173.542-.002-28.055-7.86-50.897-40.472-50.897z"/></svg>