<svg xmlns="http://www.w3.org/2000/svg" width="438.542" height="438.543" viewBox="0 0 438.542 438.543"><path d="M288.078 367.164c-12.748 0-23.887-2.95-33.4-8.85-7.427-4.38-12.368-10.09-14.842-17.132-2.673-6.852-4-23.223-4-49.115V179.58h103.92v-68.806H235.834V0h-62.53c-2.856 22.458-7.992 41.11-15.415 55.963-7.425 14.655-17.228 27.218-29.41 37.685-12.182 10.282-26.933 18.276-44.254 23.984v61.955h48.535v153.89c0 20.364 2.097 35.69 6.28 45.966 4 10.283 11.52 20.272 22.558 29.98 11.42 9.515 24.554 16.653 39.4 21.407 15.417 5.14 33.12 7.713 53.104 7.713 18.274 0 34.735-1.813 49.392-5.428 14.466-3.237 31.41-9.424 50.823-18.562V345.46c-21.892 14.473-43.968 21.704-66.24 21.704z"/></svg>