<svg xmlns="http://www.w3.org/2000/svg" width="612" height="612" viewBox="0 0 612 612"><path d="M437.22 245.162c0-3.088-.057-6.148-.196-9.18 13.214-9.848 24.675-22.17 33.744-36.275a129.554 129.554 0 0 1-38.835 10.626c13.965-8.596 24.675-22.338 29.738-38.834-13.074 7.927-27.54 13.602-42.923 16.55-12.323-14.02-29.904-22.95-49.35-23.283-37.332-.612-67.598 30.934-67.598 70.463 0 5.62.583 11.072 1.75 16.33-56.22-3.617-106.04-32.882-139.368-77-5.814 10.57-9.152 22.92-9.152 36.163 0 25.037 11.934 47.29 30.07 60.42-11.098-.5-21.502-3.865-30.626-9.374v.917c0 34.996 23.312 64.316 54.245 71.16a64.033 64.033 0 0 1-17.805 2.42 61.76 61.76 0 0 1-12.713-1.392c8.596 28.68 33.577 49.628 63.147 50.323-23.146 19.194-52.3 30.655-83.956 30.572-5.453 0-10.85-.36-16.135-1.03 29.932 20.53 65.455 32.492 103.65 32.492 124.32.03 192.31-108.184 192.31-202.07z"/><path d="M612 306C612 137.004 474.995 0 306 0 137.004 0 0 137.004 0 306c0 168.995 137.004 306 306 306 168.995 0 306-137.005 306-306zm-584.182 0C27.818 152.36 152.36 27.818 306 27.818S584.182 152.36 584.182 306 459.64 584.182 306 584.182 27.818 459.64 27.818 306z"/></svg>